<?xml version="1.0" encoding="UTF-8" standalone="no"?>
<!DOCTYPE svg PUBLIC "-//W3C//DTD SVG 1.1//EN" "http://www.w3.org/Graphics/SVG/1.1/DTD/svg11.dtd">
<svg width="100%" height="100%" viewBox="0 0 1079 367" version="1.1" xmlns="http://www.w3.org/2000/svg" xmlns:xlink="http://www.w3.org/1999/xlink" xml:space="preserve" xmlns:serif="http://www.serif.com/" style="fill-rule:evenodd;clip-rule:evenodd;stroke-linecap:round;stroke-linejoin:round;stroke-miterlimit:1.5;">
    <g transform="matrix(1,0,0,1,-320.669,-2012.81)">
        <g transform="matrix(1,0,0,1,-8.76556,1240.89)">
            <path d="M637.242,970.721L556.442,970.721L556.442,998.321C556.442,1004.72 558.242,1009.65 561.842,1013.12C565.442,1016.59 570.309,1018.32 576.442,1018.32C584.176,1018.32 589.309,1016.06 591.842,1011.52C594.376,1006.99 595.909,1002.46 596.442,997.921L637.242,997.921C637.242,1015.79 631.776,1030.19 620.842,1041.12C615.509,1046.72 609.109,1051.12 601.642,1054.32C594.176,1057.52 585.776,1059.12 576.442,1059.12C563.642,1059.12 552.776,1056.45 543.842,1051.12C534.909,1045.79 528.042,1038.72 523.242,1029.92C520.309,1024.59 518.309,1018.46 517.242,1011.52C516.176,1004.59 515.642,996.988 515.642,988.721L515.642,921.921C515.642,913.655 516.176,906.055 517.242,899.121C518.309,892.188 520.309,886.055 523.242,880.721C528.042,871.921 534.909,864.855 543.842,859.521C552.776,854.188 563.642,851.521 576.442,851.521C585.776,851.521 594.242,853.121 601.842,856.321C609.442,859.521 615.909,863.921 621.242,869.521C631.909,881.521 637.242,896.588 637.242,914.721L637.242,970.721ZM556.442,938.721L596.442,938.721L596.442,915.521C596.442,907.788 594.642,901.988 591.042,898.121C587.442,894.255 582.576,892.321 576.442,892.321C570.309,892.321 565.442,894.255 561.842,898.121C558.242,901.988 556.442,907.788 556.442,915.521L556.442,938.721Z" style="fill:rgb(86,175,51);fill-rule:nonzero;"/>
            <path d="M667.242,1056.72L667.242,853.921L708.042,853.921L708.042,873.521L708.842,873.521C713.109,867.121 718.242,861.855 724.242,857.721C730.242,853.588 737.909,851.521 747.242,851.521C752.309,851.521 757.376,852.388 762.442,854.121C767.509,855.855 772.042,858.721 776.042,862.721C780.042,866.721 783.242,871.855 785.642,878.121C788.042,884.388 789.242,892.055 789.242,901.121L789.242,1056.72L748.442,1056.72L748.442,916.321C748.442,908.855 746.709,902.988 743.242,898.721C739.776,894.455 734.842,892.321 728.442,892.321C720.709,892.321 715.376,894.721 712.442,899.521C709.509,904.321 708.042,911.255 708.042,920.321L708.042,1056.72L667.242,1056.72Z" style="fill:rgb(86,175,51);fill-rule:nonzero;"/>
            <path d="M822.842,1056.72L822.842,771.921L863.642,771.921L863.642,872.321L864.442,872.321C868.976,865.655 874.376,860.521 880.642,856.921C886.909,853.321 894.042,851.521 902.042,851.521C911.909,851.521 919.576,853.255 925.042,856.721C930.509,860.188 934.976,864.588 938.442,869.921C941.109,874.188 942.842,879.788 943.642,886.721C944.442,893.655 944.842,904.455 944.842,919.121L944.842,996.321C944.842,1007.52 944.309,1016.46 943.242,1023.12C942.176,1029.79 940.442,1035.39 938.042,1039.92C931.109,1052.72 919.242,1059.12 902.442,1059.12C892.309,1059.12 884.576,1057.12 879.242,1053.12C873.909,1049.12 868.709,1044.19 863.642,1038.32L863.642,1056.72L822.842,1056.72ZM904.042,916.321C904.042,909.921 902.642,904.321 899.842,899.521C897.042,894.721 891.776,892.321 884.042,892.321C878.176,892.321 873.309,894.388 869.442,898.521C865.576,902.655 863.642,907.921 863.642,914.321L863.642,993.121C863.642,1000.59 865.509,1006.65 869.242,1011.32C872.976,1015.99 877.909,1018.32 884.042,1018.32C890.976,1018.32 896.042,1015.79 899.242,1010.72C902.442,1005.65 904.042,998.988 904.042,990.721L904.042,916.321Z" style="fill:white;fill-rule:nonzero;"/>
            <rect x="978.442" y="853.921" width="40.8" height="202.8" style="fill:white;fill-rule:nonzero;"/>
            <g transform="matrix(1,0,0,1,212.766,-1240.89)">
                <rect x="765.677" y="2012.81" width="40.8" height="40.8" style="fill:rgb(86,175,51);"/>
            </g>
            <path d="M1050.44,771.921L1091.24,771.921L1091.24,999.521C1091.24,1007.25 1092.64,1012.52 1095.44,1015.32C1098.24,1018.12 1103.51,1019.92 1111.24,1020.72L1111.24,1059.12C1101.91,1059.12 1093.51,1058.39 1086.04,1056.92C1078.58,1055.45 1072.18,1052.59 1066.84,1048.32C1061.51,1044.32 1057.44,1038.65 1054.64,1031.32C1051.84,1023.99 1050.44,1014.32 1050.44,1002.32L1050.44,771.921Z" style="fill:white;fill-rule:nonzero;"/>
            <rect x="1127.24" y="853.921" width="40.8" height="202.8" style="fill:white;fill-rule:nonzero;"/>
            <g transform="matrix(1,0,0,1,212.766,-1240.89)">
                <rect x="914.477" y="2012.81" width="40.8" height="40.8" style="fill:rgb(86,175,51);"/>
            </g>
            <path d="M1201.64,853.921L1201.64,792.321L1242.44,792.321L1242.44,853.921L1267.64,853.921L1267.64,885.921L1242.44,885.921L1242.44,998.321C1242.44,1003.12 1242.91,1006.86 1243.84,1009.52C1244.78,1012.19 1246.31,1014.19 1248.44,1015.52C1250.58,1016.86 1253.18,1017.65 1256.24,1017.92C1259.31,1018.19 1263.11,1018.32 1267.64,1018.32L1267.64,1056.72L1250.84,1056.72C1241.51,1056.72 1233.71,1055.26 1227.44,1052.32C1221.18,1049.39 1216.18,1045.65 1212.44,1041.12C1208.71,1036.59 1205.98,1031.45 1204.24,1025.72C1202.51,1019.99 1201.64,1014.46 1201.64,1009.12L1201.64,885.921L1181.24,885.921L1181.24,853.921L1201.64,853.921Z" style="fill:white;fill-rule:nonzero;"/>
            <path d="M1266.04,853.921L1309.24,853.921L1337.24,980.321L1338.04,980.321L1365.64,853.921L1407.64,853.921L1349.24,1091.92C1347.11,1100.99 1344.11,1108.45 1340.24,1114.32C1336.38,1120.19 1331.91,1124.99 1326.84,1128.72C1321.78,1132.45 1316.38,1135.06 1310.64,1136.52C1304.91,1137.99 1298.98,1138.72 1292.84,1138.72L1281.64,1138.72L1281.64,1100.32L1290.84,1100.32C1294.84,1100.32 1298.31,1099.79 1301.24,1098.72C1304.18,1097.65 1306.84,1095.26 1309.24,1091.52C1311.38,1087.79 1313.38,1082.52 1315.24,1075.72C1317.11,1068.92 1319.24,1059.52 1321.64,1047.52L1266.04,853.921Z" style="fill:white;fill-rule:nonzero;"/>
        </g>
        <g transform="matrix(1,0,0,1,-176.984,-468.252)">
            <g transform="matrix(0.317773,0,0,0.322136,376.694,1795.82)">
                <ellipse cx="599.468" cy="2696.51" rx="47.314" ry="47.278" style="fill:white;"/>
            </g>
            <g transform="matrix(0.581148,-0.0163678,0.0184323,0.65445,192.077,909.163)">
                <ellipse cx="559.954" cy="2696.1" rx="101.687" ry="90.241" style="fill:none;stroke:rgb(86,175,50);stroke-width:33.65px;"/>
            </g>
        </g>
    </g>
</svg>
